<svg width="969" height="473" viewBox="0 0 969 473" fill="none" xmlns="http://www.w3.org/2000/svg">
    <path d="M967 473L968.397 444.166L942.728 457.373L967 473ZM5.25729 1.42546C4.66383 0.178789 3.17212 -0.350744 1.92546 0.242711C0.678789 0.836166 0.149256 2.32788 0.742711 3.57454L5.25729 1.42546ZM10.5401 20.1266C11.3021 21.278 12.8532 21.5936 14.0046 20.8316C15.156 20.0696 15.4717 18.5185 14.7097 17.3671L10.5401 20.1266ZM37.6734 47.4052C36.7704 46.3607 35.1917 46.246 34.1472 47.149C33.1027 48.052 32.9879 49.6308 33.8909 50.6752L37.6734 47.4052ZM60.3708 78.2935C61.3739 79.2423 62.9562 79.1983 63.9049 78.1952C64.8537 77.192 64.8096 75.6097 63.8065 74.661L60.3708 78.2935ZM92.352 99.3334C91.2694 98.4766 89.6971 98.6595 88.8402 99.7422C87.9833 100.825 88.1663 102.397 89.2489 103.254L92.352 99.3334ZM120.205 125.773C121.353 126.541 122.906 126.233 123.673 125.085C124.441 123.937 124.133 122.385 122.985 121.617L120.205 125.773ZM155.206 141.477C154.005 140.795 152.479 141.216 151.798 142.417C151.116 143.618 151.537 145.144 152.738 145.825L155.206 141.477ZM186.542 163.517C187.785 164.116 189.28 163.594 189.879 162.35C190.478 161.106 189.956 159.612 188.712 159.013L186.542 163.517ZM223.327 174.368C222.049 173.847 220.59 174.461 220.069 175.74C219.548 177.019 220.162 178.478 221.441 178.999L223.327 174.368ZM257.282 192.402C258.588 192.848 260.009 192.152 260.456 190.845C260.903 189.539 260.206 188.118 258.9 187.671L257.282 192.402ZM294.982 198.948C293.654 198.57 292.272 199.341 291.894 200.669C291.517 201.997 292.287 203.38 293.615 203.757L294.982 198.948ZM330.593 213.289C331.938 213.602 333.281 212.765 333.594 211.42C333.906 210.075 333.069 208.731 331.724 208.419L330.593 213.289ZM368.933 216.174C367.575 215.922 366.271 216.819 366.019 218.176C365.767 219.534 366.664 220.839 368.022 221.09L368.933 216.174ZM405.558 227.238C406.925 227.433 408.191 226.483 408.387 225.117C408.582 223.75 407.632 222.483 406.266 222.288L405.558 227.238ZM443.885 226.92C442.511 226.777 441.282 227.775 441.14 229.148C440.997 230.521 441.994 231.75 443.368 231.893L443.885 226.92ZM483.892 235.592C485.267 235.717 486.483 234.703 486.608 233.328C486.733 231.953 485.72 230.737 484.345 230.612L483.892 235.592ZM526.528 234.71C525.155 234.568 523.926 235.565 523.783 236.939C523.64 238.312 524.638 239.541 526.011 239.683L526.528 234.71ZM568.361 244.424C569.732 244.589 570.977 243.612 571.143 242.242C571.308 240.871 570.331 239.625 568.96 239.46L568.361 244.424ZM611.042 244.984C609.675 244.789 608.409 245.739 608.214 247.106C608.018 248.472 608.968 249.739 610.335 249.934L611.042 244.984ZM652.361 256.536C653.721 256.771 655.015 255.859 655.25 254.498C655.485 253.138 654.573 251.844 653.213 251.609L652.361 256.536ZM695.044 259.659C693.694 259.369 692.365 260.229 692.076 261.579C691.786 262.929 692.646 264.258 693.996 264.548L695.044 259.659ZM735.157 274.512C736.489 274.877 737.864 274.093 738.228 272.761C738.592 271.429 737.808 270.054 736.477 269.69L735.157 274.512ZM777.141 282.465C775.842 281.997 774.41 282.67 773.941 283.968C773.472 285.267 774.145 286.7 775.444 287.168L777.141 282.465ZM814.36 303.588C815.598 304.199 817.097 303.69 817.708 302.452C818.319 301.214 817.81 299.715 816.572 299.104L814.36 303.588ZM853.52 320.73C852.385 319.943 850.828 320.226 850.041 321.36C849.254 322.495 849.536 324.052 850.671 324.839L853.52 320.73ZM883.081 351.574C884.069 352.539 885.652 352.521 886.616 351.533C887.581 350.545 887.563 348.962 886.575 347.998L883.081 351.574ZM914.797 380.213C913.964 379.112 912.396 378.895 911.295 379.728C910.194 380.561 909.977 382.129 910.81 383.23L914.797 380.213ZM934.356 418.283C935.07 419.465 936.607 419.844 937.789 419.13C938.971 418.416 939.35 416.879 938.636 415.697L934.356 418.283ZM959.461 452.883C958.819 451.661 957.307 451.191 956.085 451.834C954.863 452.477 954.393 453.988 955.036 455.21L959.461 452.883ZM3 2.5C0.742711 3.57454 0.742855 3.57485 0.743011 3.57517C0.743077 3.57531 0.743244 3.57566 0.743377 3.57594C0.743643 3.5765 0.743954 3.57715 0.744308 3.5779C0.745018 3.57938 0.745906 3.58124 0.746971 3.58347C0.749101 3.58792 0.751943 3.59385 0.7555 3.60124C0.762614 3.61604 0.772589 3.6367 0.785455 3.66318C0.811186 3.71614 0.848479 3.79235 0.897567 3.89134C0.995744 4.08932 1.14111 4.37839 1.33553 4.75474C1.72439 5.50742 2.3095 6.60921 3.1059 8.02941C4.69869 10.8698 7.13671 14.984 10.5401 20.1266L14.7097 17.3671C11.3771 12.3316 9.00268 8.32237 7.46701 5.58385C6.69918 4.21461 6.14107 3.16308 5.77775 2.45981C5.59609 2.10818 5.46314 1.84362 5.37701 1.66995C5.33395 1.58312 5.3026 1.51901 5.28272 1.4781C5.27278 1.45764 5.26571 1.44299 5.26149 1.4342C5.25937 1.4298 5.25797 1.42687 5.25727 1.42541C5.25692 1.42468 5.25675 1.42432 5.25675 1.42432C5.25675 1.42433 5.2568 1.42442 5.25689 1.42461C5.25693 1.42471 5.25703 1.42492 5.25706 1.42496C5.25717 1.4252 5.25729 1.42546 3 2.5ZM33.8909 50.6752C41.267 59.2073 50.0402 68.5227 60.3708 78.2935L63.8065 74.661C53.602 65.0093 44.9442 55.8154 37.6734 47.4052L33.8909 50.6752ZM89.2489 103.254C98.6636 110.706 108.962 118.253 120.205 125.773L122.985 121.617C111.854 114.173 101.664 106.703 92.352 99.3334L89.2489 103.254ZM152.738 145.825C163.33 151.838 174.587 157.758 186.542 163.517L188.712 159.013C176.859 153.302 165.701 147.434 155.206 141.477L152.738 145.825ZM221.441 178.999C232.844 183.645 244.784 188.127 257.282 192.402L258.9 187.671C246.492 183.427 234.641 178.978 223.327 174.368L221.441 178.999ZM293.615 203.757C305.493 207.134 317.815 210.321 330.593 213.289L331.724 208.419C319.024 205.469 306.782 202.302 294.982 198.948L293.615 203.757ZM368.022 221.09C380.159 223.34 392.668 225.396 405.558 227.238L406.266 222.288C393.443 220.456 381.002 218.411 368.933 216.174L368.022 221.09ZM443.368 231.893C449.671 232.549 456.058 233.154 462.529 233.708L462.955 228.726C456.514 228.175 450.158 227.572 443.885 226.92L443.368 231.893ZM462.529 233.708C469.77 234.327 476.89 234.955 483.892 235.592L484.345 230.612C477.334 229.974 470.205 229.346 462.955 228.726L462.529 233.708ZM526.011 239.683C540.689 241.208 554.796 242.786 568.361 244.424L568.96 239.46C555.365 237.818 541.231 236.238 526.528 234.71L526.011 239.683ZM610.335 249.934C625.044 252.036 639.036 254.232 652.361 256.536L653.213 251.609C639.835 249.296 625.794 247.092 611.042 244.984L610.335 249.934ZM693.996 264.548C708.615 267.681 722.305 270.996 735.157 274.512L736.477 269.69C723.525 266.146 709.743 262.81 695.044 259.659L693.996 264.548ZM775.444 287.168C789.553 292.261 802.463 297.719 814.36 303.588L816.572 299.104C804.491 293.144 791.408 287.614 777.141 282.465L775.444 287.168ZM850.671 324.839C862.517 333.052 873.214 341.937 883.081 351.574L886.575 347.998C876.511 338.168 865.599 329.105 853.52 320.73L850.671 324.839ZM910.81 383.23C919.033 394.097 926.788 405.755 934.356 418.283L938.636 415.697C930.996 403.052 923.145 391.245 914.797 380.213L910.81 383.23Z" fill="white" fill-opacity="0.1"/>
</svg>
